<?xml version="1.0" encoding="UTF-8"?>
<svg id="Layer_1" data-name="Layer 1" xmlns="http://www.w3.org/2000/svg" xmlns:xlink="http://www.w3.org/1999/xlink" viewBox="0 0 472.23 392.32">
  <defs>
    <style>
      .cls-1 {
        fill: url(#linear-gradient-2);
      }

      .cls-1, .cls-2, .cls-3, .cls-4, .cls-5, .cls-6 {
        stroke: #231f20;
      }

      .cls-1, .cls-2, .cls-3, .cls-4, .cls-5, .cls-6, .cls-7 {
        stroke-miterlimit: 10;
      }

      .cls-8 {
        mask: url(#mask-2);
      }

      .cls-8, .cls-9, .cls-10, .cls-7 {
        fill: none;
      }

      .cls-2 {
        fill: url(#linear-gradient-5);
      }

      .cls-3 {
        fill: url(#linear-gradient-4);
      }

      .cls-4 {
        fill: url(#linear-gradient-6);
      }

      .cls-11 {
        fill: url(#radial-gradient);
      }

      .cls-5 {
        fill: url(#linear-gradient-3);
      }

      .cls-12 {
        fill: #a08cc8;
        opacity: .5;
      }

      .cls-13 {
        fill: #cfbaf0;
      }

      .cls-14 {
        fill: url(#linear-gradient-7);
      }

      .cls-10 {
        clip-path: url(#clippath);
      }

      .cls-15 {
        filter: url(#luminosity-noclip);
      }

      .cls-6 {
        fill: url(#linear-gradient);
      }

      .cls-7 {
        stroke: #ffafcc;
      }

      .cls-16 {
        fill: #231f20;
      }

      .cls-17 {
        fill: url(#linear-gradient-8);
      }
    </style>
    <radialGradient id="radial-gradient" cx="236.11" cy="232.28" fx="236.11" fy="232.28" r="160.04" gradientUnits="userSpaceOnUse">
      <stop offset=".3" stop-color="#000"/>
      <stop offset="1" stop-color="#000" stop-opacity="0"/>
    </radialGradient>
    <clipPath id="clippath">
      <circle id="mask" class="cls-9" cx="236.11" cy="168.27" r="168.27"/>
    </clipPath>
    <linearGradient id="linear-gradient" x1="189.9" y1="146.07" x2="436.89" y2="146.07" gradientUnits="userSpaceOnUse">
      <stop offset="0" stop-color="#b9fbc0"/>
      <stop offset=".09" stop-color="#aef9ca"/>
      <stop offset=".28" stop-color="#a1f6d7"/>
      <stop offset=".51" stop-color="#9af5de"/>
      <stop offset="1" stop-color="#98f5e1"/>
    </linearGradient>
    <linearGradient id="linear-gradient-2" x1="156.44" y1="282.5" x2="338.51" y2="282.5" gradientUnits="userSpaceOnUse">
      <stop offset="0" stop-color="#b9fbc0"/>
      <stop offset=".09" stop-color="#aef9ca"/>
      <stop offset=".28" stop-color="#a1f6d7"/>
      <stop offset=".51" stop-color="#9af5de"/>
      <stop offset="1" stop-color="#98f5e1"/>
    </linearGradient>
    <linearGradient id="linear-gradient-3" x1="25.71" y1="104.47" x2="241.48" y2="104.47" gradientUnits="userSpaceOnUse">
      <stop offset="0" stop-color="#b9fbc0"/>
      <stop offset=".09" stop-color="#aef9ca"/>
      <stop offset=".28" stop-color="#a1f6d7"/>
      <stop offset=".51" stop-color="#9af5de"/>
      <stop offset="1" stop-color="#98f5e1"/>
    </linearGradient>
    <linearGradient id="linear-gradient-4" x1="201.02" y1="151.52" x2="246.12" y2="151.52" xlink:href="#linear-gradient-2"/>
    <linearGradient id="linear-gradient-5" x1="200.34" y1="187.69" x2="236.46" y2="187.69" xlink:href="#linear-gradient-2"/>
    <linearGradient id="linear-gradient-6" x1="104.11" y1="228.62" x2="185.74" y2="228.62" xlink:href="#linear-gradient-2"/>
    <linearGradient id="linear-gradient-7" x1="444.02" y1="-.44" x2="40.6" y2="326.93" gradientUnits="userSpaceOnUse">
      <stop offset="0" stop-color="#fff47f"/>
      <stop offset=".04" stop-color="#fdf570" stop-opacity=".83"/>
      <stop offset=".1" stop-color="#fcf761" stop-opacity=".66"/>
      <stop offset=".16" stop-color="#fbf954" stop-opacity=".5"/>
      <stop offset=".22" stop-color="#fafa48" stop-opacity=".36"/>
      <stop offset=".29" stop-color="#f9fc3f" stop-opacity=".25"/>
      <stop offset=".37" stop-color="#f9fd37" stop-opacity=".16"/>
      <stop offset=".45" stop-color="#f8fe31" stop-opacity=".09"/>
      <stop offset=".56" stop-color="#f8fe2d" stop-opacity=".04"/>
      <stop offset=".69" stop-color="#f8fe2a" stop-opacity="0"/>
      <stop offset=".99" stop-color="#f8ff2a" stop-opacity="0"/>
    </linearGradient>
    <linearGradient id="linear-gradient-8" x1="52.41" y1="317.01" x2="420.77" y2="18.76" gradientUnits="userSpaceOnUse">
      <stop offset="0" stop-color="#8c78b4"/>
      <stop offset=".02" stop-color="#8471a9" stop-opacity=".94"/>
      <stop offset=".08" stop-color="#655682" stop-opacity=".72"/>
      <stop offset=".16" stop-color="#493f5e" stop-opacity=".53"/>
      <stop offset=".23" stop-color="#322b41" stop-opacity=".36"/>
      <stop offset=".32" stop-color="#201b29" stop-opacity=".23"/>
      <stop offset=".42" stop-color="#110f16" stop-opacity=".13"/>
      <stop offset=".54" stop-color="#070609" stop-opacity=".05"/>
      <stop offset=".69" stop-color="#010102" stop-opacity=".01"/>
      <stop offset="1" stop-color="#000" stop-opacity="0"/>
    </linearGradient>
    <filter id="luminosity-noclip" x="0" y="0" width="472.23" height="306.36" color-interpolation-filters="sRGB" filterUnits="userSpaceOnUse">
      <feFlood flood-color="#fff" result="bg"/>
      <feBlend in="SourceGraphic" in2="bg"/>
    </filter>
    <mask id="mask-2" data-name="mask" x="0" y="0" width="472.23" height="306.36" maskUnits="userSpaceOnUse">
      <g class="cls-15">
        <path id="base-2" data-name="base" class="cls-16" d="m75.02,217.04c-4.67-15.44-7.18-31.81-7.18-48.77C67.84,75.34,143.18,0,236.11,0c74.13,0,137.06,47.94,159.5,114.5"/>
      </g>
    </mask>
  </defs>
  <circle id="backdrop" class="cls-11" cx="236.11" cy="232.28" r="160.04"/>
  <circle id="base" class="cls-13" cx="236.11" cy="168.27" r="168.27"/>
  <path id="shadow" class="cls-12" d="m236.11,0c-49.01,0-93.12,20.96-123.87,54.4,29.97-27.56,69.95-44.4,113.87-44.4,92.93,0,168.27,75.34,168.27,168.27,0,43.92-16.83,83.91-44.4,113.87,33.44-30.75,54.4-74.86,54.4-123.87C404.38,75.34,329.05,0,236.11,0Z"/>
  <g class="cls-10">
    <g id="conts">
      <path class="cls-6" d="m285.18,130.16c3.65,7.31,9.22,13.51,12.89,20.81,6.12,12.16,6.39,27.12.7,39.49s-17.2,21.92-30.42,25.2c-12.52,3.11-25.79.8-38.53,2.81-11.01,1.74-21.48,6.78-29.7,14.31-6.5,5.95-11.85,14.63-9.76,23.19,2.64,10.83,15.51,15.67,26.65,15.89,34.75.69,67.23-25.71,101.42-19.49,12.43,2.26,24.7,8.81,37.04,6.09,9.16-2.02,16.56-8.97,21.59-16.89,9.81-15.41,12-35.43,5.73-52.59-2.96-8.12-7.75-15.84-8.1-24.48-.44-10.69,6.13-20.57,14.26-27.52,8.13-6.95,17.86-11.72,26.71-17.74,8.85-6.02,17.17-13.84,20.22-24.1,3.05-10.25-.94-23.15-10.87-27.14-14.36-5.77-30.05,9.07-45.18,5.81-9.72-2.09-16.32-11.08-20.73-19.99s-7.8-18.71-15-25.56c-11.19-10.64-30.77-10.67-42-.08-6.96,6.56-10.03,16.58-9,25.98.96,8.8,7.93,15.04,1.98,22.88-11.89,15.66-19.54,33.79-9.89,53.12Z"/>
      <path class="cls-1" d="m185.32,295.9c11.58-.06,23.26-.13,34.55-2.69,18.39-4.18,34.58-14.67,51.56-22.87s36.48-14.25,54.53-8.81c3.55,1.07,7.07,2.64,9.58,5.37s3.79,6.82,2.41,10.26c-1.47,3.67-5.53,5.71-9.46,6.16s-7.88-.36-11.82-.7c-10.17-.88-20.32,1.38-30.28,3.62-8.61,1.94-17.23,3.88-25.84,5.81-8.41,1.89-16.81,3.78-25.2,5.76-11.36,2.67-22.72,5.5-34.3,6.85-7.12.83-14.31,1.09-21.47.79-4.74-.2-17.52.54-21.18-2.77-4.48-4.05-.4-6.04,3.26-6.66,7.41-1.26,16.11-.08,23.64-.12Z"/>
      <path class="cls-5" d="m100.82,52.75c10.88,5.98,24.11,6.24,36.3,3.83s23.72-7.27,35.53-11.13c17.17-5.6,35.03-9.09,53.04-10.35,3.86-.27,8.27-.22,10.87,2.64,3.66,4.05.87,10.9-3.66,13.94s-10.2,3.76-15.21,5.92-9.81,6.94-8.81,12.31c1.53,8.19,14.38,9.71,16.62,17.74,1.64,5.89-3.97,11.77-9.98,12.87s-12.08-1.09-17.87-3.04c-16.39-5.51-33.34-9.33-50.5-11.39-11.39-1.37-24.75-1.19-31.98,7.72-5.7,7.02-5.33,17.66-.84,25.5s12.38,13.23,20.67,16.84c6.12,2.67,12.65,4.55,18.25,8.19s10.29,9.63,10.06,16.3c-.21,6.11-4.63,11.54-10.11,14.25s-11.85,3.1-17.94,2.53c-18.82-1.74-36.6-12.47-46.92-28.3-4.33-6.64-7.55-14.27-13.69-19.28-8.37-6.83-20.08-7.21-30.29-10.73-8.83-3.04-17.12-9.07-20.5-17.78s-.42-20.09,7.94-24.26c4.62-2.3,10.03-2.19,15.06-3.35,10.37-2.39,18.83-10.19,24.39-19.26,2.23-3.64,8.39-24.58,13.09-23.12,1.17.36,4.56,10.31,5.78,11.97,2.83,3.86,6.52,7.12,10.71,9.42Z"/>
      <path class="cls-3" d="m202.33,145.7c1.59,2.12,4.67,2.99,5.63,5.46,1.05,2.7-1.04,5.5-2.79,7.8s-3.26,5.73-1.31,7.88c1.39,1.54,3.91,1.46,5.78.57s3.38-2.4,5.13-3.52c3.92-2.5,8.78-2.86,13.42-3.19s9.51-.78,13.35-3.41,6.06-8.21,3.48-12.08c-2.28-3.43-7.11-4.05-11.18-3.41-4.75.74-10.01,3.04-14.75,1.12-3.51-1.42-4.16-4.55-6.83-6.61-5.63-4.35-14.63,3.13-9.93,9.4Z"/>
      <path class="cls-2" d="m207.36,187.56c-2.99.32-6.76,1.4-7.01,4.39-.18,2.2,1.96,4.03,4.15,4.34s4.36-.46,6.45-1.18,4.32-1.39,6.47-.88c3.74.9,6.05,5.11,9.84,5.81,3.41.63,6.75-2.01,8.1-5.21s1.18-6.8.95-10.27c-.13-1.97-.28-3.98-1.09-5.78s-2.44-3.35-4.41-3.51c-5.93-.48-4.68,6.32-7.48,9.06-3.57,3.5-11.22,2.71-15.96,3.22Z"/>
      <path class="cls-4" d="m146.57,212.92c4.01-6.64,10.16-12.35,17.72-14.08,7.56-1.73,16.44,1.41,19.87,8.36,2.35,4.78,1.88,10.55-.04,15.52s-5.17,9.29-8.37,13.54c-7.17,9.52-15.37,19.71-27.04,22.09-10.22,2.09-20.52-2.4-29.99-6.77-3.62-1.67-7.31-3.39-10.2-6.13s-4.91-6.73-4.28-10.66c1.03-6.39,8.69-9.88,15.06-8.78,5.45.94,12.19,8.45,17.64,5.87s6.74-14.16,9.64-18.96Z"/>
    </g>
  </g>
  <circle id="shadow2" class="cls-14" cx="236.11" cy="168.27" r="168.27"/>
  <circle id="shadow3" class="cls-17" cx="236.11" cy="168.27" r="168.27"/>
  <g class="cls-8">
    <g>
      <ellipse class="cls-7" cx="236.11" cy="168.27" rx="190.5" ry="70.63" transform="translate(-42.11 86.68) rotate(-19.13)"/>
      <ellipse class="cls-7" cx="236.11" cy="168.27" rx="206.61" ry="76.6" transform="translate(-44.48 95.24) rotate(-20.89)"/>
      <ellipse class="cls-7" cx="236.11" cy="168.27" rx="222.88" ry="82.64" transform="translate(-46.29 102.61) rotate(-22.39)"/>
      <ellipse class="cls-7" cx="236.11" cy="168.27" rx="239.29" ry="88.72" transform="translate(-47.7 109) rotate(-23.68)"/>
      <ellipse class="cls-7" cx="236.11" cy="168.27" rx="255.8" ry="94.84" transform="translate(-48.81 114.6) rotate(-24.81)"/>
    </g>
  </g>
</svg>